<svg width="125" height="19" viewBox="0 0 125 19" fill="none" xmlns="http://www.w3.org/2000/svg">
<g clip-path="url(#clip0_4489_27744)">
<path d="M17.3103 16.1317C19.0364 14.4183 20.103 12.0788 20.103 9.5C20.103 6.92496 19.039 4.58757 17.3166 2.87475C17.2612 2.80645 17.1975 2.74486 17.1269 2.69131C15.3608 1.02758 12.9533 0 10.3016 0C7.64205 0 5.22806 1.03347 3.46028 2.70584C3.39889 2.75406 3.34286 2.80837 3.29311 2.86787C1.56687 4.58129 0.5 6.92163 0.5 9.5C0.5 12.0746 1.56383 14.412 3.28602 16.1247C3.33793 16.1877 3.39692 16.245 3.4619 16.2953C5.22928 17.9669 7.64286 18.9998 10.3016 18.9998C12.9604 18.9998 15.376 17.9659 17.1438 16.293C17.2049 16.245 17.2607 16.1909 17.3103 16.1317ZM16.9924 12.9088C16.5871 11.9222 15.8982 10.8312 14.7229 9.93621C13.6325 9.10543 12.4775 8.72146 11.5505 8.54804C11.6884 7.94704 11.965 7.23096 12.5124 6.55612C12.5235 6.54237 12.5346 6.52862 12.546 6.51507C14.023 4.73468 16.9776 5.37279 17.5981 7.57663C18.1 9.36438 17.8834 11.2701 16.9922 12.9092L16.9924 12.9088ZM13.8179 3.01478C12.8005 3.40759 11.6751 4.07536 10.7515 5.21449C9.93425 6.22204 9.53566 7.28615 9.3462 8.1621C8.49427 7.88107 7.7169 7.42114 7.0696 6.81518L7.03759 6.78493C5.59889 5.41404 6.2305 3.0246 8.16484 2.47035C10.0507 1.93147 12.079 2.12708 13.8183 3.01557L13.8179 3.01478ZM3.71986 5.89856C4.14953 6.82596 4.75714 7.66575 5.51033 8.37324C6.67021 9.46268 7.94559 10.0269 8.95633 10.3194C8.67088 11.1862 8.18331 11.9777 7.53141 12.6324C7.52128 12.6424 7.51115 12.6521 7.50122 12.6623C6.08703 14.0567 3.62016 13.4453 3.04833 11.5697C2.76226 10.6291 2.6743 9.64226 2.78966 8.668C2.90502 7.69375 3.22136 6.75193 3.71986 5.89856ZM6.58571 15.8792C7.54255 15.4627 8.40899 14.8738 9.13891 14.1437C10.3075 12.9746 10.8895 11.686 11.1802 10.6892C11.8204 10.8151 12.6033 11.082 13.3387 11.6433C13.3529 11.6539 13.3669 11.6648 13.3806 11.6756C15.2177 13.1071 14.5594 15.9715 12.2852 16.5727C10.3652 17.0789 8.31669 16.8297 6.58531 15.8794L6.58571 15.8792Z" fill="white"/>
<path d="M32.5917 11.957C32.4367 11.6234 32.2085 11.3265 31.923 11.0869C31.6393 10.8489 31.2993 10.6535 30.9099 10.5038C30.5011 10.3509 30.0822 10.2245 29.6562 10.1254C29.4265 10.0825 29.1496 10.0306 28.8254 9.96961C28.5135 9.9135 28.2091 9.82337 27.9182 9.70093C27.6454 9.58973 27.3957 9.43149 27.1812 9.23389C26.9733 9.03847 26.8695 8.78825 26.8695 8.47381C26.8695 8.08611 27.0489 7.79308 27.4112 7.59157C27.7702 7.393 28.1986 7.29245 28.69 7.29245C29.2096 7.29245 29.6504 7.39215 30.0126 7.59157C30.3619 7.78314 30.6708 8.03688 30.923 8.33947L32.5354 7.15791C32.1354 6.53217 31.5979 6.08549 30.9228 5.81785C30.2497 5.55247 29.5297 5.41665 28.8031 5.41798C28.2933 5.419 27.7859 5.48571 27.2943 5.61635C26.8166 5.74187 26.3648 5.94639 25.9589 6.22087C25.5705 6.48579 25.2488 6.8322 25.0177 7.23431C24.7786 7.64636 24.6589 8.1267 24.6586 8.67532C24.6586 9.18204 24.7532 9.60627 24.936 9.9482C25.1123 10.2806 25.3643 10.5698 25.673 10.7939C25.9785 11.02 26.3311 11.1969 26.7311 11.3311C27.1311 11.4652 27.5534 11.5846 27.9974 11.6885C28.2272 11.7343 28.4951 11.7891 28.7944 11.8563C29.0854 11.9208 29.3702 12.0097 29.6454 12.122C29.904 12.229 30.1382 12.3846 30.3344 12.5798C30.5265 12.7752 30.6241 13.0194 30.6241 13.3187C30.627 13.5305 30.5585 13.7374 30.4288 13.9079C30.2936 14.0831 30.1208 14.2279 29.9222 14.3321C29.6988 14.4503 29.4575 14.5338 29.2073 14.5794C28.946 14.6302 28.6801 14.6557 28.4136 14.6558C27.8152 14.6558 27.308 14.5307 26.8922 14.2773C26.4845 14.0284 26.1064 13.7365 25.7648 13.4071L24.1992 14.6558C24.7378 15.3701 25.3457 15.8617 26.0292 16.1302C26.7127 16.3987 27.5064 16.5302 28.4136 16.5302C28.9524 16.5307 29.4895 16.4714 30.0144 16.3535C30.5437 16.2343 31.0162 16.0392 31.4329 15.7735C31.8457 15.5051 32.1912 15.1504 32.4438 14.7355C32.7055 14.3112 32.8367 13.8013 32.8375 13.2059C32.8341 12.7141 32.7524 12.2989 32.5917 11.957Z" fill="white"/>
<path d="M44.23 7.63643C44.0157 7.12355 43.7281 6.70325 43.3671 6.37552C43.0044 6.04721 42.5723 5.79926 42.1009 5.64883C41.6142 5.49331 41.1047 5.41498 40.5923 5.41688C39.7481 5.41688 39.0037 5.59089 38.359 5.93892C37.7134 6.28989 37.2632 6.7479 37.0014 7.31256H36.9542V1.25H34.8818V16.2636H36.9544V10.8176C36.9544 10.2069 37.03 9.67843 37.1844 9.23299C37.3388 8.78754 37.5528 8.41791 37.83 8.12802C38.1072 7.83813 38.4283 7.62425 38.7969 7.49286C39.1655 7.36146 39.5653 7.29154 39.9939 7.29154C40.3105 7.29126 40.6251 7.33965 40.926 7.43492C41.2239 7.5314 41.4953 7.69217 41.7197 7.90511C41.9495 8.12115 42.1353 8.40259 42.2739 8.75376C42.4125 9.10179 42.4818 9.52307 42.4818 10.0147V16.2636H44.5544V9.4559C44.5546 8.75691 44.4444 8.14924 44.23 7.63643Z" fill="white"/>
<path d="M57.5416 10.995C57.5412 10.3126 57.4437 9.63355 57.2518 8.97698C57.0674 8.32733 56.7505 7.72013 56.3197 7.19129C55.8914 6.66297 55.3433 6.23553 54.6756 5.90898C54.0079 5.57922 53.1888 5.41797 52.2221 5.41797C51.4094 5.41797 50.6576 5.55938 49.9667 5.8422C49.2737 6.12279 48.6781 6.51272 48.1799 7.01197C47.6746 7.52137 47.2755 8.12057 47.0046 8.77665C46.7209 9.45424 46.5791 10.1869 46.5791 10.9746C46.5791 11.7623 46.7093 12.495 46.9698 13.1727C47.2312 13.8503 47.6028 14.4366 48.0877 14.937C48.5726 15.4375 49.1617 15.8255 49.8612 16.1064C50.5572 16.3904 51.3382 16.5308 52.1982 16.5308C54.2707 16.5308 55.8822 15.8093 57.0328 14.3663L55.4674 13.2061C55.0674 13.6824 54.6296 14.064 54.1542 14.357C53.6788 14.6501 53.1179 14.7905 52.4723 14.7905C52.0028 14.7921 51.5364 14.7168 51.0928 14.5678C50.6456 14.4181 50.2551 14.2105 49.9175 13.942C49.5794 13.6756 49.3008 13.3452 49.0987 12.971C48.894 12.5926 48.79 12.1713 48.79 11.7103H57.5416V10.995ZM48.7919 10.1037C48.7919 9.74629 48.8705 9.38629 49.0312 9.0198C49.1963 8.65303 49.4265 8.3172 49.7114 8.02757C50.0173 7.72124 50.3809 7.47456 50.7825 7.30088C51.2044 7.11764 51.6707 7.02317 52.1746 7.02317C52.6974 7.02317 53.1542 7.10173 53.5447 7.25885C53.9384 7.4146 54.2628 7.63202 54.5242 7.90698C54.7883 8.18604 54.988 8.51646 55.11 8.87623C55.2423 9.24939 55.3147 9.65771 55.3305 10.1037H48.7919Z" fill="white"/>
<path d="M66.2655 14.3548C65.8529 14.5532 65.3522 14.6541 64.7694 14.6541C64.2341 14.6541 63.749 14.5626 63.3206 14.3764C62.9005 14.198 62.5239 13.9358 62.2152 13.6069C61.9064 13.2773 61.6703 12.8957 61.5001 12.4562C61.3315 12.0095 61.2462 11.5373 61.2483 11.0617C61.2466 10.5817 61.3198 10.1041 61.4655 9.64527C61.6024 9.20821 61.8213 8.79939 62.1113 8.43935C62.3953 8.09048 62.7571 7.80847 63.1696 7.61446C63.5915 7.41295 64.0859 7.3122 64.6562 7.3122C65.2389 7.3122 65.7429 7.41295 66.1648 7.61446C66.5867 7.81597 66.9901 8.109 67.3713 8.49376L68.9396 7.11069C68.4143 6.55392 67.7632 6.12245 67.0373 5.84998C66.3074 5.57489 65.5307 5.43498 64.7475 5.43753C63.8876 5.43753 63.1085 5.57502 62.4104 5.84998C61.7122 6.12494 61.1138 6.50858 60.615 7.0009C60.1142 7.4923 59.7269 8.07948 59.4529 8.76244C59.1757 9.44611 59.0371 10.2003 59.0371 11.0185C59.0371 11.8367 59.1757 12.5844 59.4529 13.2591C59.7269 13.9369 60.1206 14.5161 60.6245 15.0023C61.1318 15.4847 61.7344 15.8602 62.4324 16.1287C63.1317 16.3944 63.9034 16.5277 64.7475 16.5288C65.5446 16.5288 66.3005 16.4026 67.0152 16.1501C67.7301 15.8968 68.3538 15.4824 68.8924 14.9016L67.4185 13.4724C67.0657 13.8602 66.6814 14.1543 66.2655 14.3548Z" fill="white"/>
<path d="M70.3662 1.25V16.2636H72.4388V1.25H70.3662Z" fill="white"/>
<path d="M82.8682 5.68359V11.1298C82.8682 11.7405 82.7926 12.269 82.6382 12.7142C82.487 13.1599 82.2698 13.5293 81.9957 13.8194C81.7215 14.1095 81.3973 14.3232 81.0287 14.4543C80.6603 14.5887 80.2603 14.6559 79.8287 14.6559C79.512 14.6576 79.1971 14.6091 78.8966 14.5123C78.5987 14.4159 78.3273 14.2552 78.1029 14.0423C77.8731 13.8284 77.6872 13.5444 77.5517 13.1934C77.4161 12.8425 77.344 12.4241 77.344 11.9327V5.68359H75.2712V12.4921C75.2712 13.1913 75.3783 13.7978 75.5924 14.3116C75.8066 14.8246 76.0964 15.2459 76.4554 15.5725C76.8165 15.8981 77.2447 16.1457 77.7118 16.2992C78.1873 16.4549 78.6943 16.5313 79.2299 16.5313C80.0741 16.5313 80.8204 16.3571 81.4629 16.0093C82.1087 15.6581 82.5623 15.2002 82.8238 14.6354H82.8678V16.2656H84.9401V5.68359H82.8682Z" fill="white"/>
<path d="M96.4779 1.25V7.19982H96.4306C96.0621 6.6499 95.5329 6.21539 94.843 5.8963C94.1531 5.57721 93.4161 5.41747 92.6321 5.41708C91.7881 5.41708 91.0225 5.55751 90.3423 5.84131C89.6589 6.12216 89.0752 6.51189 88.5911 7.01049C88.106 7.51132 87.7344 8.09738 87.473 8.77517C87.2116 9.45296 87.0825 10.1853 87.0825 10.9731C87.0825 11.7609 87.2114 12.4911 87.473 13.1589C87.7344 13.8306 88.106 14.4159 88.5911 14.9234C89.0762 15.4309 89.6594 15.8241 90.3423 16.1049C91.0225 16.3889 91.7881 16.5293 92.6321 16.5293C93.3692 16.5293 94.0874 16.3736 94.7865 16.0621C95.4825 15.7479 96.0304 15.3111 96.4306 14.7433H96.4779V16.2636H98.5502V1.25H96.4779ZM96.2258 12.4569C96.0558 12.9116 95.8165 13.2993 95.5109 13.6169C95.2022 13.9374 94.8263 14.1908 94.3832 14.3772C93.936 14.5634 93.4383 14.6549 92.8837 14.6549C92.3291 14.6549 91.8349 14.5634 91.3877 14.3772C90.9405 14.191 90.5654 13.9374 90.26 13.6169C89.9547 13.2964 89.7151 12.9116 89.5449 12.4569C89.3782 12.0019 89.2929 11.5073 89.2929 10.9731C89.2929 10.4389 89.3782 9.94416 89.5449 9.48949C89.7151 9.03462 89.9545 8.64987 90.26 8.32934C90.5656 8.00881 90.9435 7.75545 91.3877 7.56926C91.8319 7.38307 92.3326 7.29154 92.8837 7.29154C93.4349 7.29154 93.9356 7.38307 94.3832 7.56926C94.8308 7.75545 95.2023 8.00881 95.5109 8.32934C95.8165 8.64987 96.0558 9.03462 96.2258 9.48949C96.3927 9.94416 96.4779 10.4389 96.4779 10.9731C96.4779 11.5073 96.3927 12.0019 96.2258 12.4569Z" fill="white"/>
<path d="M111.536 10.995C111.537 10.3128 111.44 9.63369 111.249 8.97698C111.064 8.32785 110.747 7.72089 110.317 7.19129C109.886 6.66297 109.337 6.23553 108.67 5.90898C108.002 5.57922 107.184 5.41797 106.217 5.41797C105.404 5.41797 104.652 5.55938 103.962 5.8422C103.272 6.12305 102.676 6.51278 102.176 7.01138C101.678 7.51221 101.287 8.09828 101 8.77606C100.717 9.45365 100.575 10.1863 100.575 10.974C100.575 11.7616 100.707 12.4944 100.965 13.1721C101.213 13.8264 101.594 14.4262 102.084 14.9364C102.568 15.4343 103.157 15.825 103.857 16.1058C104.556 16.3898 105.335 16.5313 106.194 16.5302C108.266 16.5302 109.878 15.8087 111.028 14.3657L109.463 13.2055C109.063 13.6818 108.625 14.0634 108.15 14.3565C107.674 14.6495 107.114 14.7895 106.471 14.7895C106.001 14.7911 105.533 14.7158 105.089 14.5668C104.644 14.4171 104.251 14.2095 103.913 13.9411C103.575 13.6754 103.297 13.3448 103.097 12.97C102.89 12.5916 102.786 12.1703 102.786 11.7093H111.535L111.536 10.995ZM102.786 10.1037C102.786 9.74629 102.867 9.38629 103.029 9.0198C103.193 8.65237 103.424 8.31633 103.71 8.02757C103.999 7.73159 104.355 7.48727 104.777 7.30088C105.199 7.1145 105.666 7.02317 106.173 7.02317C106.692 7.02317 107.149 7.10173 107.543 7.25885C107.933 7.4146 108.258 7.63202 108.519 7.90698C108.783 8.18708 108.984 8.51772 109.108 8.8776C109.237 9.25011 109.31 9.65929 109.325 10.1051L102.786 10.1037Z" fill="white"/>
<path d="M122.428 1.25V7.19982H122.381C122.012 6.6499 121.483 6.21539 120.793 5.8963C120.104 5.57721 119.367 5.41747 118.582 5.41708C117.738 5.41708 116.975 5.55849 116.293 5.84131C115.609 6.12216 115.025 6.51189 114.541 7.01049C114.052 7.52101 113.672 8.12089 113.423 8.77517C113.165 9.45276 113.033 10.1853 113.033 10.9731C113.033 11.7609 113.165 12.4911 113.423 13.1589C113.675 13.8117 114.054 14.411 114.541 14.9234C115.026 15.4302 115.61 15.8241 116.293 16.1049C116.976 16.3889 117.739 16.5304 118.582 16.5293C119.32 16.5293 120.038 16.3736 120.737 16.0621C121.433 15.7479 121.984 15.3111 122.381 14.7433H122.428V16.2636H124.501V1.25H122.428ZM122.176 12.4569C122.006 12.9116 121.767 13.2993 121.461 13.6169C121.153 13.9374 120.777 14.1908 120.334 14.3772C119.886 14.5634 119.389 14.6549 118.838 14.6549C118.283 14.6549 117.786 14.5634 117.338 14.3772C116.894 14.1907 116.518 13.9373 116.211 13.6169C115.905 13.2993 115.666 12.9116 115.496 12.4569C115.329 12.0019 115.243 11.5073 115.243 10.9731C115.243 10.4389 115.329 9.94416 115.496 9.48949C115.666 9.03462 115.905 8.64987 116.211 8.32934C116.516 8.00881 116.894 7.75545 117.338 7.56926C117.786 7.38307 118.283 7.29154 118.838 7.29154C119.389 7.29154 119.886 7.38307 120.334 7.56926C120.778 7.75545 121.154 8.00881 121.461 8.32934C121.767 8.64987 122.006 9.03462 122.176 9.48949C122.346 9.94436 122.428 10.4389 122.428 10.9731C122.428 11.5073 122.343 12.0019 122.176 12.4569Z" fill="white"/>
</g>
<defs>
<clipPath id="clip0_4489_27744">
<rect width="124" height="19" fill="white" transform="translate(0.5)"/>
</clipPath>
</defs>
</svg>
