<svg width="141" height="22" viewBox="0 0 141 22" fill="none" xmlns="http://www.w3.org/2000/svg">
<path d="M19.1149 18.3453C21.0775 16.3967 22.2904 13.7362 22.2904 10.8036C22.2904 7.87518 21.0805 5.21706 19.122 3.26921C19.059 3.19154 18.9866 3.1215 18.9063 3.0606C16.8981 1.16858 14.1605 0 11.1453 0C8.12115 0 5.37624 1.17528 3.36611 3.07713C3.2963 3.13196 3.23259 3.19372 3.17602 3.26139C1.21313 5.20992 0 7.87138 0 10.8036C0 13.7315 1.20967 16.3896 3.16796 18.3372C3.22698 18.4089 3.29406 18.474 3.36795 18.5313C5.37762 20.4323 8.12208 21.6069 11.1453 21.6069C14.1686 21.6069 16.9153 20.4312 18.9255 18.5286C18.995 18.474 19.0585 18.4126 19.1149 18.3453ZM18.7534 14.6801C18.2925 13.5582 17.5091 12.3174 16.1727 11.2996C14.9329 10.3548 13.6195 9.91819 12.5654 9.72097C12.7223 9.03751 13.0368 8.22316 13.6591 7.45573C13.6718 7.44009 13.6845 7.42446 13.6974 7.40904C15.3769 5.38436 18.7365 6.11003 19.4421 8.61626C20.0127 10.6493 19.7665 12.8165 18.7531 14.6805L18.7534 14.6801ZM15.1437 3.42846C13.9868 3.87516 12.7071 4.63456 11.6568 5.93001C10.7276 7.0758 10.2744 8.28593 10.0589 9.28208C9.09021 8.96248 8.20626 8.43944 7.47024 7.75033L7.43383 7.71593C5.79789 6.15693 6.51609 3.43963 8.71562 2.80933C10.86 2.1965 13.1664 2.41895 15.1442 3.42935L15.1437 3.42846ZM3.66127 6.70794C4.14985 7.76259 4.84075 8.71761 5.6972 9.52218C7.01609 10.7611 8.46631 11.4028 9.61562 11.7354C9.29103 12.7211 8.73661 13.6212 7.99535 14.3658C7.98383 14.3772 7.97231 14.3881 7.96102 14.3998C6.35296 15.9856 3.54791 15.2903 2.89768 13.1572C2.5724 12.0875 2.47237 10.9653 2.60355 9.85739C2.73473 8.74945 3.09443 7.6784 3.66127 6.70794ZM6.92001 18.058C8.00801 17.5845 8.99323 16.9147 9.82322 16.0845C11.152 14.7549 11.8138 13.2895 12.1444 12.156C12.8723 12.2991 13.7626 12.6027 14.5988 13.241C14.6149 13.2531 14.6308 13.2653 14.6465 13.2776C16.7354 14.9056 15.9868 18.163 13.4008 18.8467C11.2177 19.4224 8.88828 19.139 6.91955 18.0583L6.92001 18.058Z" fill="#EB2590"/>
<path d="M36.4913 13.5965C36.315 13.217 36.0555 12.8794 35.7309 12.607C35.4083 12.3363 35.0217 12.1141 34.5788 11.9439C34.114 11.77 33.6378 11.6262 33.1533 11.5135C32.8921 11.4648 32.5772 11.4057 32.2086 11.3364C31.8539 11.2725 31.5079 11.17 31.177 11.0308C30.8668 10.9044 30.5829 10.7244 30.339 10.4997C30.1026 10.2774 29.9846 9.99289 29.9846 9.63531C29.9846 9.19441 30.1885 8.86117 30.6005 8.63201C31.0088 8.4062 31.4959 8.29184 32.0547 8.29184C32.6454 8.29184 33.1467 8.40523 33.5586 8.63201C33.9558 8.84987 34.307 9.13842 34.5938 9.48253L36.4272 8.13885C35.9724 7.42725 35.3612 6.91927 34.5936 6.61491C33.8282 6.31311 33.0095 6.15866 32.1832 6.16017C31.6036 6.16133 31.0266 6.23719 30.4676 6.38575C29.9244 6.52851 29.4107 6.76108 28.9492 7.07323C28.5075 7.3745 28.1417 7.76844 27.8789 8.22573C27.607 8.69432 27.4709 9.24057 27.4706 9.86447C27.4706 10.4407 27.5782 10.9232 27.786 11.312C27.9865 11.6901 28.2731 12.0189 28.624 12.2738C28.9715 12.5308 29.3724 12.7321 29.8273 12.8846C30.2821 13.0372 30.7623 13.173 31.2671 13.2911C31.5284 13.3432 31.833 13.4055 32.1733 13.4819C32.5043 13.5553 32.8281 13.6564 33.1411 13.7841C33.4351 13.9058 33.7013 14.0827 33.9245 14.3047C34.1429 14.5269 34.254 14.8046 34.254 15.145C34.2573 15.3858 34.1793 15.6211 34.0318 15.815C33.8781 16.0143 33.6816 16.1789 33.4558 16.2975C33.2017 16.4319 32.9274 16.5268 32.6429 16.5787C32.3458 16.6364 32.0434 16.6655 31.7404 16.6655C31.06 16.6655 30.4832 16.5233 30.0104 16.2351C29.5468 15.952 29.1168 15.6201 28.7284 15.2455L26.9482 16.6655C27.5607 17.4779 28.2519 18.0369 29.0291 18.3423C29.8063 18.6476 30.7088 18.7972 31.7404 18.7972C32.3531 18.7977 32.9638 18.7303 33.5606 18.5962C34.1625 18.4606 34.6998 18.2388 35.1735 17.9366C35.643 17.6315 36.0358 17.2281 36.3231 16.7562C36.6206 16.2736 36.7698 15.6938 36.7708 15.0168C36.7669 14.4575 36.674 13.9853 36.4913 13.5965Z" fill="black"/>
<path d="M49.7249 8.68462C49.4813 8.10138 49.1542 7.6234 48.7438 7.2507C48.3313 6.87735 47.84 6.59537 47.3039 6.4243C46.7505 6.24743 46.1712 6.15836 45.5885 6.16052C44.6286 6.16052 43.7821 6.35841 43.0491 6.75419C42.315 7.15332 41.803 7.67418 41.5053 8.31632H41.4517V1.42188H39.0952V18.4956H41.4519V12.3023C41.4519 11.6079 41.5378 11.0068 41.7134 10.5003C41.889 9.99369 42.1323 9.57334 42.4475 9.24368C42.7627 8.91401 43.1279 8.67078 43.547 8.52135C43.9662 8.37193 44.4208 8.29242 44.9081 8.29242C45.2681 8.29209 45.6258 8.34712 45.968 8.45546C46.3067 8.56519 46.6153 8.74801 46.8705 8.99017C47.1318 9.23586 47.3431 9.55592 47.5007 9.95528C47.6583 10.3511 47.7371 10.8301 47.7371 11.3892V18.4956H50.0938V10.7538C50.094 9.95885 49.9687 9.2678 49.7249 8.68462Z" fill="black"/>
<path d="M64.8616 12.5025C64.8612 11.7264 64.7503 10.9542 64.5321 10.2075C64.3224 9.46873 63.962 8.77821 63.4722 8.17681C62.9851 7.57599 62.3619 7.0899 61.6026 6.71854C60.8434 6.34353 59.9121 6.16016 58.8128 6.16016C57.8887 6.16016 57.0338 6.32097 56.2483 6.6426C55.4603 6.96169 54.783 7.40512 54.2165 7.97288C53.6419 8.55218 53.1881 9.2336 52.8801 9.97971C52.5575 10.7503 52.3962 11.5834 52.3962 12.4792C52.3962 13.375 52.5443 14.2083 52.8405 14.979C53.1377 15.7496 53.5603 16.4163 54.1117 16.9854C54.663 17.5545 55.3329 17.9958 56.1282 18.3152C56.9197 18.6382 57.8077 18.7979 58.7856 18.7979C61.1423 18.7979 62.9748 17.9774 64.283 16.3363L62.5031 15.017C62.0483 15.5586 61.5503 15.9926 61.0098 16.3258C60.4692 16.6591 59.8315 16.8188 59.0974 16.8188C58.5635 16.8205 58.0331 16.7349 57.5287 16.5655C57.0202 16.3953 56.5762 16.1592 56.1923 15.8539C55.8078 15.5508 55.4911 15.1751 55.2612 14.7496C55.0285 14.3192 54.9103 13.8401 54.9103 13.3159H64.8616V12.5025ZM54.9124 11.4889C54.9124 11.0824 55.0018 10.673 55.1845 10.2562C55.3722 9.83913 55.634 9.45721 55.958 9.12784C56.3058 8.77948 56.7192 8.49895 57.1759 8.30144C57.6557 8.09305 58.1858 7.98562 58.7589 7.98562C59.3533 7.98562 59.8727 8.07496 60.3167 8.25364C60.7644 8.43076 61.1333 8.67801 61.4305 8.9907C61.7309 9.30805 61.9579 9.68382 62.0966 10.0929C62.2471 10.5173 62.3294 10.9817 62.3473 11.4889H54.9124Z" fill="black"/>
<path d="M74.7813 16.3245C74.3122 16.5501 73.7428 16.6649 73.0802 16.6649C72.4714 16.6649 71.9198 16.5608 71.4327 16.3491C70.955 16.1461 70.5268 15.848 70.1758 15.474C69.8247 15.0992 69.5562 14.6652 69.3627 14.1654C69.1709 13.6574 69.0739 13.1204 69.0763 12.5796C69.0744 12.0336 69.1577 11.4905 69.3233 10.9687C69.4789 10.4717 69.7279 10.0068 70.0576 9.59735C70.3806 9.20061 70.792 8.8799 71.2611 8.65927C71.7408 8.43011 72.303 8.31553 72.9514 8.31553C73.614 8.31553 74.1871 8.43011 74.6668 8.65927C75.1465 8.88843 75.6053 9.22167 76.0387 9.65922L77.8221 8.08637C77.2247 7.45321 76.4844 6.96253 75.659 6.65267C74.829 6.33983 73.9458 6.18073 73.0553 6.18363C72.0774 6.18363 71.1916 6.33998 70.3977 6.65267C69.6039 6.96537 68.9234 7.40165 68.3562 7.96152C67.7868 8.52035 67.3463 9.18809 67.0348 9.96477C66.7196 10.7423 66.562 11.5999 66.562 12.5304C66.562 13.4609 66.7196 14.3112 67.0348 15.0784C67.3463 15.8492 67.794 16.5079 68.3671 17.0609C68.9439 17.6094 69.6291 18.0364 70.4228 18.3418C71.2179 18.6439 72.0954 18.7956 73.0553 18.7968C73.9616 18.7968 74.8211 18.6532 75.6339 18.3662C76.4468 18.078 77.156 17.6068 77.7684 16.9463L76.0924 15.321C75.6913 15.762 75.2543 16.0965 74.7813 16.3245Z" fill="black"/>
<path d="M79.4441 1.42188V18.4956H81.8008V1.42188H79.4441Z" fill="black"/>
<path d="M93.6602 6.46094V12.6545C93.6602 13.3489 93.5742 13.9499 93.3986 14.4563C93.2267 14.9631 92.9797 15.3832 92.668 15.7131C92.3562 16.043 91.9876 16.286 91.5685 16.4352C91.1496 16.588 90.6947 16.6643 90.204 16.6643C89.8438 16.6664 89.4858 16.6112 89.1441 16.5011C88.8053 16.3915 88.4967 16.2087 88.2415 15.9666C87.9802 15.7234 87.7689 15.4004 87.6148 15.0013C87.4607 14.6021 87.3786 14.1264 87.3786 13.5676V6.46094H85.0217V14.2037C85.0217 14.9988 85.1435 15.6885 85.3869 16.2728C85.6305 16.8562 85.96 17.3353 86.3683 17.7067C86.7788 18.077 87.2657 18.3587 87.7968 18.5331C88.3376 18.7103 88.9141 18.7971 89.5231 18.7971C90.483 18.7971 91.3316 18.599 92.0622 18.2035C92.7965 17.8041 93.3123 17.2833 93.6097 16.6411H93.6597V18.4949H96.0161V6.46094H93.6602Z" fill="black"/>
<path d="M109.135 1.42188V8.18811H109.082C108.663 7.56273 108.061 7.0686 107.277 6.70572C106.492 6.34285 105.654 6.16119 104.762 6.16074C103.803 6.16074 102.932 6.32044 102.159 6.64318C101.382 6.96258 100.718 7.40578 100.168 7.9728C99.616 8.54235 99.1934 9.20883 98.8962 9.97962C98.5989 10.7504 98.4521 11.5833 98.4521 12.4792C98.4521 13.375 98.5987 14.2054 98.8962 14.9648C99.1934 15.7287 99.616 16.3943 100.168 16.9714C100.719 17.5486 101.382 17.9957 102.159 18.3151C102.932 18.6381 103.803 18.7978 104.762 18.7978C105.601 18.7978 106.417 18.6207 107.212 18.2664C108.004 17.9091 108.627 17.4123 109.082 16.7666H109.135V18.4956H111.492V1.42188H109.135ZM108.849 14.1666C108.656 14.6836 108.383 15.1245 108.036 15.4857C107.685 15.8502 107.258 16.1384 106.754 16.3503C106.245 16.562 105.679 16.6661 105.049 16.6661C104.418 16.6661 103.856 16.562 103.348 16.3503C102.839 16.1386 102.412 15.8502 102.065 15.4857C101.718 15.1212 101.446 14.6836 101.252 14.1666C101.063 13.6491 100.965 13.0867 100.965 12.4792C100.965 11.8716 101.063 11.309 101.252 10.792C101.446 10.2747 101.718 9.83712 102.065 9.47261C102.413 9.1081 102.842 8.81998 103.348 8.60824C103.853 8.3965 104.422 8.29242 105.049 8.29242C105.675 8.29242 106.245 8.3965 106.754 8.60824C107.263 8.81998 107.685 9.1081 108.036 9.47261C108.383 9.83712 108.656 10.2747 108.849 10.792C109.039 11.309 109.135 11.8716 109.135 12.4792C109.135 13.0867 109.039 13.6491 108.849 14.1666Z" fill="black"/>
<path d="M126.258 12.5025C126.259 11.7266 126.149 10.9543 125.932 10.2075C125.721 9.46932 125.361 8.77908 124.872 8.17681C124.382 7.57599 123.758 7.0899 123 6.71854C122.239 6.34353 121.309 6.16016 120.21 6.16016C119.286 6.16016 118.431 6.32097 117.645 6.6426C116.861 6.96199 116.184 7.4052 115.614 7.97221C115.049 8.54176 114.605 9.20825 114.278 9.97904C113.955 10.7496 113.794 11.5828 113.794 12.4786C113.794 13.3742 113.945 14.2075 114.238 14.9783C114.52 15.7224 114.953 16.4045 115.51 16.9847C116.061 17.5509 116.731 17.9952 117.526 18.3145C118.321 18.6375 119.207 18.7984 120.184 18.7972C122.54 18.7972 124.372 17.9767 125.681 16.3356L123.901 15.0163C123.446 15.5579 122.949 15.9919 122.408 16.3251C121.866 16.6584 121.23 16.8176 120.499 16.8176C119.964 16.8194 119.433 16.7338 118.927 16.5644C118.422 16.3942 117.974 16.1581 117.59 15.8528C117.206 15.5506 116.89 15.1746 116.663 14.7485C116.426 14.3181 116.308 13.839 116.308 13.3148H126.257L126.258 12.5025ZM116.309 11.4889C116.309 11.0824 116.401 10.673 116.585 10.2562C116.772 9.83837 117.034 9.45621 117.359 9.12784C117.688 8.79125 118.093 8.5134 118.573 8.30144C119.053 8.08947 119.583 7.98562 120.16 7.98562C120.751 7.98562 121.27 8.07496 121.718 8.25364C122.162 8.43076 122.531 8.67801 122.828 8.9907C123.128 9.30923 123.356 9.68525 123.498 10.0945C123.644 10.5181 123.727 10.9835 123.745 11.4905L116.309 11.4889Z" fill="black"/>
<path d="M138.643 1.42188V8.18811H138.59C138.171 7.56273 137.569 7.0686 136.785 6.70572C136 6.34285 135.162 6.16119 134.271 6.16074C133.311 6.16074 132.443 6.32156 131.667 6.64318C130.89 6.96258 130.226 7.40578 129.675 7.9728C129.119 8.55337 128.686 9.23556 128.404 9.97962C128.11 10.7502 127.96 11.5833 127.96 12.4792C127.96 13.375 128.111 14.2054 128.404 14.9648C128.69 15.7073 129.121 16.3888 129.675 16.9714C130.227 17.5478 130.891 17.9957 131.667 18.3151C132.444 18.6381 133.312 18.799 134.271 18.7978C135.109 18.7978 135.925 18.6207 136.72 18.2664C137.512 17.9091 138.138 17.4123 138.59 16.7666H138.643V18.4956H141V1.42188H138.643ZM138.357 14.1666C138.164 14.6836 137.891 15.1245 137.544 15.4857C137.193 15.8502 136.766 16.1384 136.262 16.3503C135.753 16.562 135.187 16.6661 134.561 16.6661C133.93 16.6661 133.365 16.562 132.856 16.3503C132.351 16.1383 131.923 15.8501 131.574 15.4857C131.226 15.1245 130.954 14.6836 130.76 14.1666C130.571 13.6491 130.474 13.0867 130.474 12.4792C130.474 11.8716 130.571 11.309 130.76 10.792C130.954 10.2747 131.226 9.83712 131.574 9.47261C131.921 9.1081 132.351 8.81998 132.856 8.60824C133.364 8.3965 133.93 8.29242 134.561 8.29242C135.187 8.29242 135.753 8.3965 136.262 8.60824C136.767 8.81998 137.194 9.1081 137.544 9.47261C137.891 9.83712 138.164 10.2747 138.357 10.792C138.55 11.3092 138.643 11.8716 138.643 12.4792C138.643 13.0867 138.547 13.6491 138.357 14.1666Z" fill="black"/>
</svg>
